<?xml version="1.0" standalone="no"?>
<!DOCTYPE svg PUBLIC "-//W3C//DTD SVG 20010904//EN"
 "http://www.w3.org/TR/2001/REC-SVG-20010904/DTD/svg10.dtd">
<svg version="1.0" xmlns="http://www.w3.org/2000/svg"
 width="512.000000pt" height="512.000000pt" viewBox="0 0 512.000000 512.000000"
 preserveAspectRatio="xMidYMid meet">
<metadata>
Created by potrace 1.14, written by Peter Selinger 2001-2017
</metadata>
<g transform="translate(0.000000,512.000000) scale(0.100000,-0.100000)"
fill="#000000" stroke="none">
<path d="M2122 4049 c-120 -60 -189 -236 -179 -459 7 -147 36 -237 104 -327
29 -38 115 -83 157 -83 185 2 314 315 250 603 -51 225 -189 336 -332 266z"/>
<path d="M2832 4049 c-204 -103 -247 -559 -75 -786 29 -38 115 -83 158 -83 43
0 129 45 158 83 77 102 112 235 105 401 -6 128 -30 212 -84 293 -66 102 -171
139 -262 92z"/>
<path d="M1550 3710 c-47 -8 -68 -21 -112 -67 -79 -82 -118 -205 -118 -373 0
-165 37 -282 116 -369 72 -80 166 -95 250 -38 213 142 216 666 5 816 -36 26
-96 39 -141 31z"/>
<path d="M3493 3708 c-134 -28 -234 -245 -220 -478 14 -233 123 -400 259 -400
62 0 108 21 152 71 76 83 106 174 113 339 8 186 -29 313 -115 403 -60 62 -112
80 -189 65z"/>
<path d="M2350 2985 c-165 -31 -336 -106 -474 -208 -298 -221 -466 -554 -466
-924 0 -420 223 -666 690 -763 305 -64 831 -43 1085 41 264 88 422 241 497
479 20 67 23 94 23 250 -1 146 -4 188 -22 256 -114 432 -421 742 -844 854
-109 29 -374 37 -489 15z m81 -542 c26 -11 65 -38 88 -58 l41 -37 41 37 c68
61 120 80 224 80 82 0 97 -3 157 -33 120 -59 188 -164 196 -303 11 -189 -70
-303 -414 -584 -91 -74 -176 -138 -189 -141 -33 -8 -51 4 -225 146 -339 278
-419 391 -408 579 9 159 101 278 251 327 59 19 180 13 238 -13z"/>
<path d="M2211 2274 c-79 -41 -114 -164 -73 -256 11 -25 50 -77 86 -116 73
-77 317 -282 336 -282 19 0 263 205 336 282 84 89 108 141 102 219 -8 110 -80
175 -184 167 -72 -6 -115 -40 -154 -123 -33 -70 -60 -95 -100 -95 -40 0 -67
25 -100 95 -41 85 -83 118 -158 122 -40 3 -67 -2 -91 -13z"/>
</g>
</svg>
